<?xml version="1.0" standalone="no"?>
<!DOCTYPE svg PUBLIC "-//W3C//DTD SVG 20010904//EN"
 "http://www.w3.org/TR/2001/REC-SVG-20010904/DTD/svg10.dtd">
<svg version="1.0" xmlns="http://www.w3.org/2000/svg"
 width="180.000000pt" height="180.000000pt" viewBox="0 0 180.000000 180.000000"
 preserveAspectRatio="xMidYMid meet">
<metadata>
Created by potrace 1.11, written by Peter Selinger 2001-2013
</metadata>
<g transform="translate(0.000000,180.000000) scale(0.100000,-0.100000)"
fill="#000000" stroke="none">
<path d="M735 1565 c-284 -63 -522 -239 -618 -456 -14 -31 -32 -61 -40 -65
-25 -15 -67 -104 -67 -143 1 -47 30 -109 69 -145 17 -17 31 -35 31 -41 0 -7 7
-27 17 -46 70 -143 222 -279 408 -365 43 -20 84 -37 94 -39 9 -1 43 -11 76
-21 82 -25 265 -25 355 -1 275 75 528 271 591 456 7 19 24 45 40 58 41 35 72
105 66 151 -7 54 -22 86 -60 129 -19 21 -44 59 -55 85 -45 104 -144 216 -250
286 -31 20 -59 39 -62 42 -15 15 -141 70 -175 77 -10 2 -23 9 -27 16 -4 6 -8
9 -8 5 0 -3 -24 0 -52 9 -73 20 -258 24 -333 8z m280 -145 c183 -41 368 -157
459 -288 14 -21 36 -67 49 -102 15 -43 31 -69 46 -76 12 -6 29 -21 37 -32 18
-26 3 -56 -36 -72 -20 -8 -30 -23 -39 -60 -44 -171 -257 -342 -503 -404 -126
-32 -230 -26 -362 21 -127 45 -242 118 -326 206 -40 41 -110 169 -110 200 0 8
-15 25 -34 36 -44 28 -50 53 -20 86 12 14 27 25 32 25 5 0 20 28 33 63 28 77
69 139 128 195 177 168 436 250 646 202z"/>
<path d="M532 1162 c-44 -14 -60 -177 -21 -226 26 -33 71 -35 103 -3 21 21 23
31 21 112 -1 81 -3 90 -25 104 -23 16 -55 21 -78 13z"/>
<path d="M1182 1163 c-36 -7 -52 -52 -48 -135 5 -94 10 -106 54 -114 67 -13
92 25 89 139 -2 70 -5 80 -27 97 -26 20 -28 20 -68 13z"/>
</g>
</svg>
